<svg xmlns="http://www.w3.org/2000/svg" viewBox="0 0 720 1280">
  <rect width="720" height="1280" fill="#FBE0EC"/>
  <rect x="0" y="0" width="720" height="520" fill="#F6C9DD"/>
  <rect x="60" y="80" width="180" height="220" rx="10" fill="#D7BDE2" stroke="#D1497A" stroke-width="10"/>
  <rect x="480" y="80" width="180" height="220" rx="10" fill="#D7BDE2" stroke="#D1497A" stroke-width="10"/>
  <circle cx="600" cy="140" r="46" fill="#FFF6D6" opacity="0.8"/>
  <rect x="0" y="500" width="720" height="60" fill="#D1497A"/>
  <rect x="0" y="500" width="720" height="14" fill="#A83A61"/>
  <rect x="0" y="560" width="720" height="720" fill="#F3D3E4"/>
  <rect x="0" y="560" width="720" height="16" fill="#E3AFCB"/>
  <rect x="90" y="640" width="540" height="120" rx="18" fill="#FFFFFF"/>
  <rect x="90" y="640" width="540" height="18" rx="9" fill="#F6C9DD"/>
  <circle cx="200" cy="700" r="22" fill="#F3C6D5" stroke="#D1497A" stroke-width="3"/>
  <circle cx="200" cy="690" r="6" fill="#E74C3C"/>
  <circle cx="440" cy="700" r="22" fill="#F3C6D5" stroke="#D1497A" stroke-width="3"/>
  <circle cx="440" cy="690" r="6" fill="#E74C3C"/>
  <g opacity="0.9">
    <circle cx="200" cy="900" r="70" fill="#F5CBA7"/>
    <rect x="140" y="900" width="120" height="70" fill="#F5CBA7"/>
    <ellipse cx="200" cy="970" rx="60" ry="14" fill="#000000" opacity="0.08"/>
    <circle cx="180" cy="1030" r="18" fill="#5C4033"/>
    <circle cx="220" cy="1030" r="18" fill="#5C4033"/>
    <rect x="170" y="980" width="60" height="50" fill="#5C4033"/>
  </g>
  <g opacity="0.9">
    <circle cx="520" cy="900" r="70" fill="#F5CBA7"/>
    <rect x="460" y="900" width="120" height="70" fill="#F5CBA7"/>
    <ellipse cx="520" cy="970" rx="60" ry="14" fill="#000000" opacity="0.08"/>
    <circle cx="500" cy="1030" r="18" fill="#5C4033"/>
    <circle cx="540" cy="1030" r="18" fill="#5C4033"/>
    <rect x="490" y="980" width="60" height="50" fill="#5C4033"/>
  </g>
  <text x="360" y="600" font-family="sans-serif" font-size="34" font-weight="bold" fill="#FFF6D6" text-anchor="middle">Dessert Restaurant</text>
</svg>
