<svg xmlns="http://www.w3.org/2000/svg" viewBox="0 0 720 1280">
  <rect width="720" height="1280" fill="#FCEFCB"/>
  <rect x="0" y="0" width="720" height="520" fill="#F7E0A0"/>
  <rect x="60" y="80" width="200" height="220" rx="10" fill="#87CEEB" stroke="#7B4B2A" stroke-width="10"/>
  <rect x="460" y="80" width="200" height="220" rx="10" fill="#87CEEB" stroke="#7B4B2A" stroke-width="10"/>
  <circle cx="600" cy="140" r="46" fill="#FFF6D6" opacity="0.8"/>
  <rect x="0" y="500" width="720" height="60" fill="#27AE60"/>
  <rect x="0" y="500" width="720" height="14" fill="#1E8449"/>
  <rect x="0" y="560" width="720" height="720" fill="#E9C79A"/>
  <rect x="0" y="560" width="720" height="16" fill="#C9A66B"/>
  <rect x="90" y="640" width="540" height="120" rx="18" fill="#7B4B2A"/>
  <rect x="90" y="640" width="540" height="18" rx="9" fill="#93613A"/>
  <circle cx="200" cy="700" r="26" fill="#F4D06B" stroke="#C9A227" stroke-width="4"/>
  <circle cx="200" cy="700" r="8" fill="#C0392B"/>
  <circle cx="440" cy="700" r="26" fill="#F4D06B" stroke="#C9A227" stroke-width="4"/>
  <circle cx="440" cy="700" r="8" fill="#27AE60"/>
  <g opacity="0.9">
    <circle cx="200" cy="900" r="70" fill="#F5CBA7"/>
    <rect x="140" y="900" width="120" height="70" fill="#F5CBA7"/>
    <ellipse cx="200" cy="970" rx="60" ry="14" fill="#000000" opacity="0.08"/>
    <circle cx="180" cy="1030" r="18" fill="#5C4033"/>
    <circle cx="220" cy="1030" r="18" fill="#5C4033"/>
    <rect x="170" y="980" width="60" height="50" fill="#5C4033"/>
  </g>
  <g opacity="0.9">
    <circle cx="520" cy="900" r="70" fill="#F5CBA7"/>
    <rect x="460" y="900" width="120" height="70" fill="#F5CBA7"/>
    <ellipse cx="520" cy="970" rx="60" ry="14" fill="#000000" opacity="0.08"/>
    <circle cx="500" cy="1030" r="18" fill="#5C4033"/>
    <circle cx="540" cy="1030" r="18" fill="#5C4033"/>
    <rect x="490" y="980" width="60" height="50" fill="#5C4033"/>
  </g>
  <text x="360" y="600" font-family="sans-serif" font-size="42" font-weight="bold" fill="#FFF6D6" text-anchor="middle">Pizza Restaurant</text>
</svg>
