<svg xmlns="http://www.w3.org/2000/svg" viewBox="0 0 100 150">
  <ellipse cx="50" cy="140" rx="28" ry="6" fill="#000000" opacity="0.12"/>
  <path d="M26 146 C26 100 29 86 50 86 C71 86 74 100 74 146 Z" fill="#FFFFFF" stroke="#D5D8DC" stroke-width="2"/>
  <rect x="33" y="90" width="34" height="12" rx="6" fill="#E74C3C"/>
  <circle cx="35" cy="110" r="3" fill="#2C3E50"/>
  <circle cx="35" cy="122" r="3" fill="#2C3E50"/>
  <circle cx="65" cy="110" r="3" fill="#2C3E50"/>
  <circle cx="65" cy="122" r="3" fill="#2C3E50"/>
  <circle cx="50" cy="52" r="25" fill="#FCD7B6"/>
  <circle cx="41" cy="54" r="3.4" fill="#3A2E2A"/>
  <circle cx="59" cy="54" r="3.4" fill="#3A2E2A"/>
  <path d="M40 65 Q50 72 60 65" stroke="#3A2E2A" stroke-width="2.6" fill="none" stroke-linecap="round"/>
  <path d="M27 46 C25 30 40 22 50 22 C60 22 75 30 73 46 C73 40 66 38 66 32 C60 40 56 32 50 32 C44 32 40 40 34 32 C34 38 27 40 27 46 Z" fill="#FFFFFF" stroke="#D5D8DC" stroke-width="1.5"/>
  <ellipse cx="50" cy="18" rx="26" ry="8" fill="#FFFFFF" stroke="#D5D8DC" stroke-width="1.5"/>
</svg>
